<?xml version="1.0" encoding="UTF-8" standalone="no"?>
<!-- Created with Inkscape (http://www.inkscape.org/) -->

<svg
   xmlns:dc="http://purl.org/dc/elements/1.1/"
   xmlns:cc="http://creativecommons.org/ns#"
   xmlns:rdf="http://www.w3.org/1999/02/22-rdf-syntax-ns#"
   xmlns:svg="http://www.w3.org/2000/svg"
   xmlns="http://www.w3.org/2000/svg"
   xmlns:sodipodi="http://sodipodi.sourceforge.net/DTD/sodipodi-0.dtd"
   xmlns:inkscape="http://www.inkscape.org/namespaces/inkscape"
   version="1.1"
   id="svg2"
   xml:space="preserve"
   width="1000"
   height="666.66669"
   viewBox="0 0 1000 666.66669"
   sodipodi:docname="newbg.svg"
   inkscape:version="0.92.4 (5da689c313, 2019-01-14)"><metadata
     id="metadata8"><rdf:RDF><cc:Work
         rdf:about=""><dc:format>image/svg+xml</dc:format><dc:type
           rdf:resource="http://purl.org/dc/dcmitype/StillImage" /><dc:title /></cc:Work></rdf:RDF></metadata><defs
     id="defs6"><clipPath
       clipPathUnits="userSpaceOnUse"
       id="clipPath20"><path
         d="M 0,0 H 750 V 500 H 0 Z"
         id="path18"
         inkscape:connector-curvature="0" /></clipPath><clipPath
       clipPathUnits="userSpaceOnUse"
       id="clipPath28"><path
         d="M 397.872,349.241 H 694.105 V 121.315 H 397.872 Z"
         id="path26"
         inkscape:connector-curvature="0" /></clipPath><linearGradient
       x1="0"
       y1="0"
       x2="1"
       y2="0"
       gradientUnits="userSpaceOnUse"
       gradientTransform="matrix(139.11984,-240.96263,-240.96263,-139.11984,467.49219,335.34204)"
       spreadMethod="pad"
       id="linearGradient40"><stop
         style="stop-opacity:1;stop-color:#d6e0e6"
         offset="0"
         id="stop34" /><stop
         style="stop-opacity:1;stop-color:#d6e0e6"
         offset="0.1984225"
         id="stop36" /><stop
         style="stop-opacity:1;stop-color:#a4b6c5"
         offset="1"
         id="stop38" /></linearGradient><clipPath
       clipPathUnits="userSpaceOnUse"
       id="clipPath62"><path
         d="M 411.292,376.198 H 709.348 V 126.56 H 411.292 Z"
         id="path60"
         inkscape:connector-curvature="0" /></clipPath><linearGradient
       x1="0"
       y1="0"
       x2="1"
       y2="0"
       gradientUnits="userSpaceOnUse"
       gradientTransform="matrix(144.50955,-250.29788,-250.29788,-144.50955,479.39362,357.01566)"
       spreadMethod="pad"
       id="linearGradient74"><stop
         style="stop-opacity:1;stop-color:#d6e0e6"
         offset="0"
         id="stop68" /><stop
         style="stop-opacity:1;stop-color:#d6e0e6"
         offset="0.1984225"
         id="stop70" /><stop
         style="stop-opacity:1;stop-color:#a4b6c5"
         offset="1"
         id="stop72" /></linearGradient><clipPath
       clipPathUnits="userSpaceOnUse"
       id="clipPath96"><path
         d="m 420.699,360.511 h 293.7 V 93.2995 h -293.7 z"
         id="path94"
         inkscape:connector-curvature="0" /></clipPath><linearGradient
       x1="0"
       y1="0"
       x2="1"
       y2="0"
       gradientUnits="userSpaceOnUse"
       gradientTransform="matrix(112.80666,-195.38687,-195.38687,-112.80666,525.04034,330.0506)"
       spreadMethod="pad"
       id="linearGradient124"><stop
         style="stop-opacity:1;stop-color:#9b87ff"
         offset="0"
         id="stop118" /><stop
         style="stop-opacity:1;stop-color:#9b87ff"
         offset="0.01174052"
         id="stop120" /><stop
         style="stop-opacity:1;stop-color:#ae0073"
         offset="1"
         id="stop122" /></linearGradient><linearGradient
       x1="0"
       y1="0"
       x2="1"
       y2="0"
       gradientUnits="userSpaceOnUse"
       gradientTransform="matrix(54.471313,-94.347084,-94.347084,-54.471313,156.09596,38.754318)"
       spreadMethod="pad"
       id="linearGradient146"><stop
         style="stop-opacity:1;stop-color:#9b87ff"
         offset="0"
         id="stop140" /><stop
         style="stop-opacity:1;stop-color:#9b87ff"
         offset="0.01174052"
         id="stop142" /><stop
         style="stop-opacity:1;stop-color:#ae0073"
         offset="1"
         id="stop144" /></linearGradient><linearGradient
       x1="0"
       y1="0"
       x2="1"
       y2="0"
       gradientUnits="userSpaceOnUse"
       gradientTransform="matrix(54.471313,-94.347084,-94.347084,-54.471313,702.32178,564.70782)"
       spreadMethod="pad"
       id="linearGradient170"><stop
         style="stop-opacity:1;stop-color:#ffc541"
         offset="0"
         id="stop162" /><stop
         style="stop-opacity:1;stop-color:#ffc541"
         offset="0.0172414"
         id="stop164" /><stop
         style="stop-opacity:1;stop-color:#ffc541"
         offset="0.0287795"
         id="stop166" /><stop
         style="stop-opacity:1;stop-color:#ff5288"
         offset="1"
         id="stop168" /></linearGradient><clipPath
       clipPathUnits="userSpaceOnUse"
       id="clipPath180"><path
         d="M 0,0 H 750 V 500 H 0 Z"
         id="path178"
         inkscape:connector-curvature="0" /></clipPath><clipPath
       clipPathUnits="userSpaceOnUse"
       id="clipPath188"><path
         d="m 459.521,374.104 h 203.86 V 66.9881 h -203.86 z"
         id="path186"
         inkscape:connector-curvature="0" /></clipPath><linearGradient
       x1="0"
       y1="0"
       x2="1"
       y2="0"
       gradientUnits="userSpaceOnUse"
       gradientTransform="matrix(124.40599,-215.47749,-215.47749,-124.40599,486.88406,342.62677)"
       spreadMethod="pad"
       id="linearGradient218"><stop
         style="stop-opacity:1;stop-color:#ffc541"
         offset="0"
         id="stop210" /><stop
         style="stop-opacity:1;stop-color:#ffc541"
         offset="0.0172414"
         id="stop212" /><stop
         style="stop-opacity:1;stop-color:#ffc541"
         offset="0.0287795"
         id="stop214" /><stop
         style="stop-opacity:1;stop-color:#ff5288"
         offset="1"
         id="stop216" /></linearGradient><linearGradient
       x1="0"
       y1="0"
       x2="1"
       y2="0"
       gradientUnits="userSpaceOnUse"
       gradientTransform="matrix(36.35852,-132.29048,-132.29048,-36.35852,599.78949,91.608353)"
       spreadMethod="pad"
       id="linearGradient242"><stop
         style="stop-opacity:1;stop-color:#ffc541"
         offset="0"
         id="stop234" /><stop
         style="stop-opacity:1;stop-color:#ffc541"
         offset="0.0172414"
         id="stop236" /><stop
         style="stop-opacity:1;stop-color:#ffc541"
         offset="0.0287795"
         id="stop238" /><stop
         style="stop-opacity:1;stop-color:#ff5288"
         offset="1"
         id="stop240" /></linearGradient><linearGradient
       x1="0"
       y1="0"
       x2="1"
       y2="0"
       gradientUnits="userSpaceOnUse"
       gradientTransform="matrix(100.7552,-109.20352,-129.86226,-106.76655,624.57117,85.500679)"
       spreadMethod="pad"
       id="linearGradient264"><stop
         style="stop-opacity:1;stop-color:#9b87ff"
         offset="0"
         id="stop258" /><stop
         style="stop-opacity:1;stop-color:#9b87ff"
         offset="0.01174052"
         id="stop260" /><stop
         style="stop-opacity:1;stop-color:#ae0073"
         offset="1"
         id="stop262" /></linearGradient><clipPath
       clipPathUnits="userSpaceOnUse"
       id="clipPath274"><path
         d="M 0,0 H 750 V 500 H 0 Z"
         id="path272"
         inkscape:connector-curvature="0" /></clipPath><clipPath
       clipPathUnits="userSpaceOnUse"
       id="clipPath282"><path
         d="m 679.288,330.564 h 30.19 v -39.986 h -30.19 z"
         id="path280"
         inkscape:connector-curvature="0" /></clipPath><linearGradient
       x1="0"
       y1="0"
       x2="1"
       y2="0"
       gradientUnits="userSpaceOnUse"
       gradientTransform="matrix(19.900389,-34.468483,-34.468483,-19.900389,686.09064,353.47781)"
       spreadMethod="pad"
       id="linearGradient312"><stop
         style="stop-opacity:1;stop-color:#ffc541"
         offset="0"
         id="stop304" /><stop
         style="stop-opacity:1;stop-color:#ffc541"
         offset="0.0172414"
         id="stop306" /><stop
         style="stop-opacity:1;stop-color:#ffc541"
         offset="0.0287795"
         id="stop308" /><stop
         style="stop-opacity:1;stop-color:#ff5288"
         offset="1"
         id="stop310" /></linearGradient><clipPath
       clipPathUnits="userSpaceOnUse"
       id="clipPath322"><path
         d="M 0,0 H 750 V 500 H 0 Z"
         id="path320"
         inkscape:connector-curvature="0" /></clipPath><clipPath
       clipPathUnits="userSpaceOnUse"
       id="clipPath330"><path
         d="m 390.095,285.941 h 58.822 v -49.543 h -58.822 z"
         id="path328"
         inkscape:connector-curvature="0" /></clipPath><clipPath
       clipPathUnits="userSpaceOnUse"
       id="clipPath346"><path
         d="m 273.675,88.8494 h 58.822 V 39.3065 h -58.822 z"
         id="path344"
         inkscape:connector-curvature="0" /></clipPath><clipPath
       clipPathUnits="userSpaceOnUse"
       id="clipPath362"><path
         d="m 720.589,260.283 h 58.822 v -83.899 h -58.822 z"
         id="path360"
         inkscape:connector-curvature="0" /></clipPath><clipPath
       clipPathUnits="userSpaceOnUse"
       id="clipPath378"><path
         d="M -12.8171,36.24 H 46.0046 V -13.3029 H -12.8171 Z"
         id="path376"
         inkscape:connector-curvature="0" /></clipPath><linearGradient
       x1="0"
       y1="0"
       x2="1"
       y2="0"
       gradientUnits="userSpaceOnUse"
       gradientTransform="matrix(24.624334,-42.650597,-42.650597,-24.624334,401.88577,313.5459)"
       spreadMethod="pad"
       id="linearGradient408"><stop
         style="stop-opacity:1;stop-color:#ffc541"
         offset="0"
         id="stop400" /><stop
         style="stop-opacity:1;stop-color:#ffc541"
         offset="0.0172414"
         id="stop402" /><stop
         style="stop-opacity:1;stop-color:#ffc541"
         offset="0.0287795"
         id="stop404" /><stop
         style="stop-opacity:1;stop-color:#ff5288"
         offset="1"
         id="stop406" /></linearGradient><clipPath
       clipPathUnits="userSpaceOnUse"
       id="clipPath418"><path
         d="M 0,0 H 750 V 500 H 0 Z"
         id="path416"
         inkscape:connector-curvature="0" /></clipPath><clipPath
       clipPathUnits="userSpaceOnUse"
       id="clipPath426"><path
         d="M 683.649,87.4972 H 771.25 V 13.7142 H 683.649 Z"
         id="path424"
         inkscape:connector-curvature="0" /></clipPath><linearGradient
       x1="0"
       y1="0"
       x2="1"
       y2="0"
       gradientUnits="userSpaceOnUse"
       gradientTransform="matrix(36.672344,-63.518364,-63.518364,-36.672344,714.41272,116.80019)"
       spreadMethod="pad"
       id="linearGradient456"><stop
         style="stop-opacity:1;stop-color:#ffc541"
         offset="0"
         id="stop448" /><stop
         style="stop-opacity:1;stop-color:#ffc541"
         offset="0.0172414"
         id="stop450" /><stop
         style="stop-opacity:1;stop-color:#ffc541"
         offset="0.0287795"
         id="stop452" /><stop
         style="stop-opacity:1;stop-color:#ff5288"
         offset="1"
         id="stop454" /></linearGradient><linearGradient
       x1="0"
       y1="0"
       x2="1"
       y2="0"
       gradientUnits="userSpaceOnUse"
       gradientTransform="matrix(63.854053,-110.59847,-110.59847,-63.854053,202.13394,579.95947)"
       spreadMethod="pad"
       id="linearGradient478"><stop
         style="stop-opacity:1;stop-color:#9b87ff"
         offset="0"
         id="stop472" /><stop
         style="stop-opacity:1;stop-color:#9b87ff"
         offset="0.01174052"
         id="stop474" /><stop
         style="stop-opacity:1;stop-color:#ae0073"
         offset="1"
         id="stop476" /></linearGradient><clipPath
       clipPathUnits="userSpaceOnUse"
       id="clipPath488"><path
         d="M 0,0 H 750 V 500 H 0 Z"
         id="path486"
         inkscape:connector-curvature="0" /></clipPath><clipPath
       clipPathUnits="userSpaceOnUse"
       id="clipPath496"><path
         d="M 209.966,516.453 H 310.208 V 432.024 H 209.966 Z"
         id="path494"
         inkscape:connector-curvature="0" /></clipPath><linearGradient
       x1="0"
       y1="0"
       x2="1"
       y2="0"
       gradientUnits="userSpaceOnUse"
       gradientTransform="matrix(36.355583,-62.969715,-62.969715,-36.355583,242.69644,515.44043)"
       spreadMethod="pad"
       id="linearGradient526"><stop
         style="stop-opacity:1;stop-color:#ffc541"
         offset="0"
         id="stop518" /><stop
         style="stop-opacity:1;stop-color:#ffc541"
         offset="0.0172414"
         id="stop520" /><stop
         style="stop-opacity:1;stop-color:#ffc541"
         offset="0.0287795"
         id="stop522" /><stop
         style="stop-opacity:1;stop-color:#ff5288"
         offset="1"
         id="stop524" /></linearGradient><clipPath
       clipPathUnits="userSpaceOnUse"
       id="clipPath536"><path
         d="M 0,0 H 750 V 500 H 0 Z"
         id="path534"
         inkscape:connector-curvature="0" /></clipPath><clipPath
       clipPathUnits="userSpaceOnUse"
       id="clipPath544"><path
         d="m 352.077,166.242 h 29.771 v -26.951 h -29.771 z"
         id="path542"
         inkscape:connector-curvature="0" /></clipPath><clipPath
       clipPathUnits="userSpaceOnUse"
       id="clipPath560"><path
         d="m 728.361,412.005 h 29.771 v -26.951 h -29.771 z"
         id="path558"
         inkscape:connector-curvature="0" /></clipPath><clipPath
       clipPathUnits="userSpaceOnUse"
       id="clipPath576"><path
         d="m 163.178,422.141 h 29.771 V 395.19 h -29.771 z"
         id="path574"
         inkscape:connector-curvature="0" /></clipPath><clipPath
       clipPathUnits="userSpaceOnUse"
       id="clipPath592"><path
         d="m 421.537,127.852 h 16.44 v -14.883 h -16.44 z"
         id="path590"
         inkscape:connector-curvature="0" /></clipPath><clipPath
       clipPathUnits="userSpaceOnUse"
       id="clipPath608"><path
         d="M -16.5911,510.504 H 44.2258 V 455.448 H -16.5911 Z"
         id="path606"
         inkscape:connector-curvature="0" /></clipPath><linearGradient
       x1="0"
       y1="0"
       x2="1"
       y2="0"
       gradientUnits="userSpaceOnUse"
       gradientTransform="matrix(13.727161,-23.77614,-23.77614,-13.727161,359.9577,189.86087)"
       spreadMethod="pad"
       id="linearGradient636"><stop
         style="stop-opacity:1;stop-color:#9b87ff"
         offset="0"
         id="stop630" /><stop
         style="stop-opacity:1;stop-color:#9b87ff"
         offset="0.01174052"
         id="stop632" /><stop
         style="stop-opacity:1;stop-color:#ae0073"
         offset="1"
         id="stop634" /></linearGradient><linearGradient
       x1="0"
       y1="0"
       x2="1"
       y2="0"
       gradientUnits="userSpaceOnUse"
       gradientTransform="matrix(25.89683,-44.854626,-44.854626,-25.89683,70.279419,124.65025)"
       spreadMethod="pad"
       id="linearGradient684"><stop
         style="stop-opacity:1;stop-color:#ffc541"
         offset="0"
         id="stop676" /><stop
         style="stop-opacity:1;stop-color:#ffc541"
         offset="0.0172414"
         id="stop678" /><stop
         style="stop-opacity:1;stop-color:#ffc541"
         offset="0.0287795"
         id="stop680" /><stop
         style="stop-opacity:1;stop-color:#ff5288"
         offset="1"
         id="stop682" /></linearGradient><clipPath
       clipPathUnits="userSpaceOnUse"
       id="clipPath702"><path
         d="M 0,500 H 750 V 0 H 0 Z"
         id="path700"
         inkscape:connector-curvature="0" /></clipPath><linearGradient
       x1="0"
       y1="0"
       x2="1"
       y2="0"
       gradientUnits="userSpaceOnUse"
       gradientTransform="matrix(18.0962,31.3435,-31.3435,18.0962,-26.2454,475.3325)"
       spreadMethod="pad"
       id="linearGradient714"><stop
         style="stop-opacity:1;stop-color:#ffc541"
         offset="0"
         id="stop706" /><stop
         style="stop-opacity:1;stop-color:#ffc541"
         offset="0.0172414"
         id="stop708" /><stop
         style="stop-opacity:1;stop-color:#ffc541"
         offset="0.0287795"
         id="stop710" /><stop
         style="stop-opacity:1;stop-color:#ff5288"
         offset="1"
         id="stop712" /></linearGradient><clipPath
       clipPathUnits="userSpaceOnUse"
       id="clipPath734"><path
         d="M 0,500 H 750 V 0 H 0 Z"
         id="path732"
         inkscape:connector-curvature="0" /></clipPath><clipPath
       clipPathUnits="userSpaceOnUse"
       id="clipPath746"><path
         d="M 496.317,350.101 H 623.831 V 109.067 H 496.317 Z"
         id="path744"
         inkscape:connector-curvature="0" /></clipPath><linearGradient
       x1="0"
       y1="0"
       x2="1"
       y2="0"
       gradientUnits="userSpaceOnUse"
       gradientTransform="matrix(134.23474,-232.50139,-232.50139,-134.23474,486.95004,352.5921)"
       spreadMethod="pad"
       id="linearGradient782"><stop
         style="stop-opacity:1;stop-color:#d6e0e6"
         offset="0"
         id="stop776" /><stop
         style="stop-opacity:1;stop-color:#d6e0e6"
         offset="0.1984225"
         id="stop778" /><stop
         style="stop-opacity:1;stop-color:#a4b6c5"
         offset="1"
         id="stop780" /></linearGradient><linearGradient
       x1="0"
       y1="0"
       x2="1"
       y2="0"
       gradientUnits="userSpaceOnUse"
       gradientTransform="matrix(0,-216.89064,-216.89064,0,554.07343,340.7023)"
       spreadMethod="pad"
       id="linearGradient804"><stop
         style="stop-opacity:1;stop-color:#9b87ff"
         offset="0"
         id="stop798" /><stop
         style="stop-opacity:1;stop-color:#9b87ff"
         offset="0.01174052"
         id="stop800" /><stop
         style="stop-opacity:1;stop-color:#ae0073"
         offset="1"
         id="stop802" /></linearGradient><clipPath
       clipPathUnits="userSpaceOnUse"
       id="clipPath814"><path
         d="M 0,500 H 750 V 0 H 0 Z"
         id="path812"
         inkscape:connector-curvature="0" /></clipPath><clipPath
       clipPathUnits="userSpaceOnUse"
       id="clipPath822"><path
         d="m 547.416,342.577 h 13.302 v -2.956 h -13.302 z"
         id="path820"
         inkscape:connector-curvature="0" /></clipPath><clipPath
       clipPathUnits="userSpaceOnUse"
       id="clipPath836"><path
         d="m 596.93,342.577 h 13.302 v -2.956 H 596.93 Z"
         id="path834"
         inkscape:connector-curvature="0" /></clipPath><clipPath
       clipPathUnits="userSpaceOnUse"
       id="clipPath850"><path
         d="m 497.901,342.577 h 13.303 v -2.956 h -13.303 z"
         id="path848"
         inkscape:connector-curvature="0" /></clipPath><clipPath
       clipPathUnits="userSpaceOnUse"
       id="clipPath868"><path
         d="m 516.424,248.043 h 75.287 v -13.295 h -75.287 z"
         id="path866"
         inkscape:connector-curvature="0" /></clipPath><clipPath
       clipPathUnits="userSpaceOnUse"
       id="clipPath884"><path
         d="m 516.424,224.724 h 75.287 v -13.296 h -75.287 z"
         id="path882"
         inkscape:connector-curvature="0" /></clipPath><linearGradient
       x1="0"
       y1="0"
       x2="1"
       y2="0"
       gradientUnits="userSpaceOnUse"
       gradientTransform="matrix(14.873671,-25.761953,-25.761953,-14.873671,546.63055,197.82446)"
       spreadMethod="pad"
       id="linearGradient914"><stop
         style="stop-opacity:1;stop-color:#ffc541"
         offset="0"
         id="stop906" /><stop
         style="stop-opacity:1;stop-color:#ffc541"
         offset="0.0172414"
         id="stop908" /><stop
         style="stop-opacity:1;stop-color:#ffc541"
         offset="0.0287795"
         id="stop910" /><stop
         style="stop-opacity:1;stop-color:#ff5288"
         offset="1"
         id="stop912" /></linearGradient><clipPath
       clipPathUnits="userSpaceOnUse"
       id="clipPath934"><path
         d="M 0,500 H 750 V 0 H 0 Z"
         id="path932"
         inkscape:connector-curvature="0" /></clipPath><clipPath
       clipPathUnits="userSpaceOnUse"
       id="clipPath946"><path
         d="m 521.532,244.75 h 26.154 v -6.522 h -26.154 z"
         id="path944"
         inkscape:connector-curvature="0" /></clipPath><clipPath
       clipPathUnits="userSpaceOnUse"
       id="clipPath962"><path
         d="m 521.531,221.756 h 23.994 v -6.523 h -23.994 z"
         id="path960"
         inkscape:connector-curvature="0" /></clipPath><clipPath
       clipPathUnits="userSpaceOnUse"
       id="clipPath978"><path
         d="M 0,500 H 750 V 0 H 0 Z"
         id="path976"
         inkscape:connector-curvature="0" /></clipPath></defs><sodipodi:namedview
     pagecolor="#ffffff"
     bordercolor="#666666"
     borderopacity="1"
     objecttolerance="10"
     gridtolerance="10"
     guidetolerance="10"
     inkscape:pageopacity="0"
     inkscape:pageshadow="2"
     inkscape:window-width="1920"
     inkscape:window-height="1027"
     id="namedview4"
     showgrid="false"
     inkscape:zoom="0.61"
     inkscape:cx="275.59317"
     inkscape:cy="362.52277"
     inkscape:window-x="1358"
     inkscape:window-y="-8"
     inkscape:window-maximized="1"
     inkscape:current-layer="g10" /><g
     id="g10"
     inkscape:groupmode="layer"
     inkscape:label="3027374"
     transform="matrix(1.3333333,0,0,-1.3333333,0,666.66667)"><g
       id="g14"><g
         id="g16"
         clip-path="url(#clipPath20)"><g
           id="g22"><g
             id="g24" /><g
             id="g54"><g
               clip-path="url(#clipPath28)"
               id="g52"
               style="opacity:0.5"><g
                 id="g50"><g
                   id="g48"><g
                     id="g46"><g
                       id="g44"><path
                         d="m 397.875,205.389 c 0.226,40.722 17.21,82.685 45.162,111.138 91.441,93.082 275.313,-30.076 248.407,-149.353 -3.641,-16.148 -12.238,-30.73 -26.773,-39.273 -17.32,-10.18 -39.483,-7.259 -58.222,-0.012 -21.755,8.412 -42.562,21.338 -65.791,25.389 -27.868,4.861 -52.445,-14.544 -78.621,-20.091 -33.725,-7.147 -56.596,14.982 -62.208,47.838 -1.364,7.991 -2,16.152 -1.954,24.364"
                         style="fill:url(#linearGradient40);stroke:none"
                         id="path42"
                         inkscape:connector-curvature="0" /></g></g></g></g></g></g></g><g
           id="g56"><g
             id="g58" /><g
             id="g88"><g
               clip-path="url(#clipPath62)"
               id="g86"
               style="opacity:0.5"><g
                 id="g84"><g
                   id="g82"><g
                     id="g80"><g
                       id="g78"><path
                         d="m 411.292,213.632 c 0.03,60.131 20.547,119.89 77.577,148.595 97.454,49.052 219.458,-38.751 220.474,-143.821 0.217,-22.495 -6.027,-44.612 -18.148,-63.581 -9.121,-14.274 -26.308,-29.358 -44.556,-28.203 -10.84,0.687 -23.308,7.282 -33.809,10.26 -12.195,3.457 -24.521,6.488 -37.028,8.588 -32.809,5.507 -66.687,4.569 -99.141,-2.743 -7.724,-1.742 -15.471,-3.851 -23.389,-3.799 -35.383,0.23 -41.994,47.984 -41.98,74.704"
                         style="fill:url(#linearGradient74);stroke:none"
                         id="path76"
                         inkscape:connector-curvature="0" /></g></g></g></g></g></g></g><g
           id="g90"><g
             id="g92" /><g
             id="g104"><g
               clip-path="url(#clipPath96)"
               id="g102"
               style="opacity:0.5"><g
                 transform="translate(507.3555,98.6953)"
                 id="g100"><path
                   d="m 0,0 c 31.8,-7.891 65.825,-7.505 96.825,3.67 57.882,20.864 110.284,80.269 110.219,143.886 -0.053,50.303 -38.91,102.214 -88.763,113.071 -31.96,6.96 -46.926,-17.835 -57.997,-43.432 C 54.677,204.233 49.682,190.625 41.472,179.014 30.155,163.01 15.738,158.557 -3.484,159.226 c -39.814,1.384 -77.063,-16 -82.62,-59.169 C -89.578,73.063 -76.33,45.57 -56.13,28.075 -40.46,14.504 -20.973,5.205 0,0"
                   style="fill:#d6e0e6;fill-opacity:1;fill-rule:nonzero;stroke:none"
                   id="path98"
                   inkscape:connector-curvature="0" /></g></g></g></g></g></g><g
       id="g106"><g
         id="g108"><g
           id="g114"><g
             id="g116"><path
               d="m 575.522,336.163 c -5.606,-12.962 -10.601,-26.57 -18.811,-38.182 v 0 c -11.316,-16.004 -25.734,-20.456 -44.956,-19.787 v 0 c -39.814,1.384 -77.064,-16.001 -82.62,-59.17 v 0 c -3.474,-26.994 9.774,-54.486 29.975,-71.981 v 0 c 15.67,-13.571 35.157,-22.871 56.129,-28.076 v 0 c 31.8,-7.89 65.825,-7.504 96.826,3.671 v 0 c 57.881,20.864 110.284,80.269 110.217,143.885 v 0 c -0.052,50.303 -38.909,102.214 -88.761,113.072 v 0 c -3.712,0.808 -7.196,1.188 -10.47,1.188 v 0 c -24.915,10e-4 -37.742,-21.996 -47.529,-44.62"
               style="fill:url(#linearGradient124);stroke:none"
               id="path126"
               inkscape:connector-curvature="0" /></g></g></g></g><g
       id="g128"><g
         id="g130"><g
           id="g136"><g
             id="g138"><path
               d="M 206.434,55.385 C 193.432,50.339 183.757,39.376 172.065,31.774 v 0 C 154.189,20.151 134.32,24.115 116.146,15.512 v 0 C 108.654,11.967 102.479,6.59 98.491,0 v 0 h 163.096 c 5.702,18.887 2.868,38.985 -16.431,51.442 v 0 c -6.919,4.465 -15.159,6.766 -23.388,6.766 v 0 c -5.23,0 -10.455,-0.929 -15.334,-2.823"
               style="fill:url(#linearGradient146);stroke:none"
               id="path148"
               inkscape:connector-curvature="0" /></g></g></g></g><g
       id="g150"><g
         id="g152"><g
           id="g158"><g
             id="g160"><path
               d="m 640.721,500 c 2.045,-10.254 7.437,-20.047 15.072,-26.829 v 0 c 7.49,-6.806 16.661,-11.356 26.517,-13.942 v 0 c 7.938,-2.653 16.157,-3.729 24.407,-3.519 v 0 c 13.927,0.353 29.122,4.709 43.283,11.349 v 0 V 500 Z"
               style="fill:url(#linearGradient170);stroke:none"
               id="path172"
               inkscape:connector-curvature="0" /></g></g></g></g><g
       id="g174"><g
         id="g176"
         clip-path="url(#clipPath180)"><g
           id="g182"><g
             id="g184" /><g
             id="g196"><g
               clip-path="url(#clipPath188)"
               id="g194"
               style="opacity:0.5"><g
                 transform="translate(527.7197,294.9966)"
                 id="g192"><path
                   d="m 0,0 c -10.088,-22.493 -21.128,-44.466 -35.053,-64.329 -13.185,-18.807 -29.449,-36.934 -32.583,-60.514 -3.98,-29.956 13.717,-65.749 34.804,-85.888 12.212,-11.662 28.668,-19.062 44.502,-16.904 36.273,4.944 31.01,44.427 38.563,72.756 8.455,31.714 35.506,51.73 54.86,75.386 13.598,16.621 25.445,35.743 29.383,57.689 C 142.313,21.888 110.539,86.984 61.884,78.324 46.214,75.535 33.038,64.362 23.828,50.815 13.384,35.454 7.621,16.993 0,0"
                   style="fill:#d6e0e6;fill-opacity:1;fill-rule:nonzero;stroke:none"
                   id="path190"
                   inkscape:connector-curvature="0" /></g></g></g></g></g></g><g
       id="g198"><g
         id="g200"><g
           id="g206"><g
             id="g208"><path
               d="M 579.971,392.744 C 562.73,389.531 548.039,377.76 537.643,363.637 v 0 C 525.853,347.622 519.126,328.528 510.395,310.9 v 0 c -11.558,-23.334 -24.148,-46.154 -39.854,-66.87 v 0 C 455.67,224.413 437.439,205.429 433.48,181.133 v 0 c -5.027,-30.866 13.58,-67.248 36.249,-87.471 v 0 C 482.856,81.95 500.733,74.712 518.138,77.28 v 0 c 39.875,5.885 34.98,46.334 43.889,75.607 v 0 c 9.972,32.771 40.07,53.937 61.811,78.67 v 0 c 15.276,17.379 28.686,37.288 33.489,59.923 v 0 c 8.906,41.976 -19.457,102.269 -66.646,102.273 v 0 c -3.472,0.001 -7.041,-0.325 -10.71,-1.009"
               style="fill:url(#linearGradient218);stroke:none"
               id="path220"
               inkscape:connector-curvature="0" /></g></g></g></g><g
       id="g222"><g
         id="g224"><g
           id="g230"><g
             id="g232"><path
               d="M 662.547,98.05 C 632.641,82.655 603.243,66.087 571.541,54.551 v 0 C 556.847,49.203 537.196,45.093 517.309,39.664 v 0 C 490.454,32.334 460.716,22.933 442.981,0 V 0 H 701.429 C 718.566,11.519 734.826,24.344 750,38.347 v 0 91.581 C 719.623,129.479 687.6,110.946 662.547,98.05"
               style="fill:url(#linearGradient242);stroke:none"
               id="path244"
               inkscape:connector-curvature="0" /></g></g></g></g><g
       id="g246"><g
         id="g248"><g
           id="g254"><g
             id="g256"><path
               d="m 720.814,153.035 c -17.921,-5.749 -34.486,-15.587 -48.258,-28.4 v 0 C 655.328,108.607 645.293,86.834 628.303,70.699 v 0 C 612.292,55.493 592.785,44.527 573.824,33.495 v 0 c -5.079,-2.956 -11.012,-6.453 -17.233,-10.426 v 0 C 546.397,16.559 535.427,8.772 526.161,0 V 0 H 750 v 158.812 c -10.159,-0.869 -20.073,-2.853 -29.186,-5.777"
               style="fill:url(#linearGradient264);stroke:none"
               id="path266"
               inkscape:connector-curvature="0" /></g></g></g></g><g
       id="g268"><g
         id="g270"
         clip-path="url(#clipPath274)"><g
           id="g276"><g
             id="g278" /><g
             id="g290"><g
               clip-path="url(#clipPath282)"
               id="g288"
               style="opacity:0.5"><g
                 transform="translate(696.6807,293.666)"
                 id="g286"><path
                   d="m 0,0 c -0.23,-0.148 -0.464,-0.293 -0.7,-0.435 -3.418,-2.047 -8.23,-3.602 -12.125,-1.975 -4.6,1.921 -5.108,7.778 -4.184,12.067 1.384,6.427 3.655,12.834 7.47,18.239 3.291,4.661 9.237,11.037 15.606,8.374 5.252,-2.196 7.076,-9.349 6.677,-14.488 C 12.07,13.083 7.359,4.737 0,0"
                   style="fill:#d6e0e6;fill-opacity:1;fill-rule:nonzero;stroke:none"
                   id="path284"
                   inkscape:connector-curvature="0" /></g></g></g></g></g></g><g
       id="g292"><g
         id="g294"><g
           id="g300"><g
             id="g302"><path
               d="m 687.721,350.465 c -4.795,-6.79 -7.646,-14.838 -9.384,-22.912 v 0 c -1.16,-5.388 -0.524,-12.746 5.256,-15.159 v 0 c 4.894,-2.044 10.937,-0.09 15.231,2.482 v 0 c 0.296,0.177 0.59,0.359 0.88,0.546 v 0 c 9.244,5.95 15.162,16.434 16.009,27.362 v 0 c 0.5,6.456 -1.79,15.442 -8.388,18.201 v 0 c -1.305,0.545 -2.596,0.789 -3.861,0.789 v 0 c -6.488,0 -12.284,-6.409 -15.743,-11.309"
               style="fill:url(#linearGradient312);stroke:none"
               id="path314"
               inkscape:connector-curvature="0" /></g></g></g></g><g
       id="g316"><g
         id="g318"
         clip-path="url(#clipPath322)"><g
           id="g324"><g
             id="g326" /><g
             id="g338"><g
               clip-path="url(#clipPath330)"
               id="g336"><g
                 transform="translate(448.7305,274.3853)"
                 id="g334"><path
                   d="m 0,0 c 1.76,-12.512 -9.32,-25.825 -19.43,-31.822 -10.24,-6.074 -36.942,-12.206 -39.089,5.53 -0.577,4.775 1.039,9.608 3.574,13.695 5.724,9.23 14.668,15.778 24.364,20.341 4.667,2.196 10.302,3.714 15.464,3.808 4.432,0.082 9.097,-1.278 12.046,-4.591 C -1.32,4.993 -0.362,2.578 0,0"
                   style="fill:#ebf3f7;fill-opacity:1;fill-rule:nonzero;stroke:none"
                   id="path332"
                   inkscape:connector-curvature="0" /></g></g></g></g><g
           id="g340"><g
             id="g342" /><g
             id="g354"><g
               clip-path="url(#clipPath346)"
               id="g352"><g
                 transform="translate(332.3115,77.293)"
                 id="g350"><path
                   d="m 0,0 c 1.76,-12.512 -9.321,-25.824 -19.431,-31.821 -10.24,-6.075 -36.942,-12.206 -39.089,5.53 -0.577,4.774 1.039,9.607 3.574,13.694 5.724,9.231 14.668,15.779 24.364,20.341 4.667,2.196 10.302,3.714 15.464,3.809 4.433,0.082 9.097,-1.279 12.046,-4.591 C -1.321,4.993 -0.363,2.578 0,0"
                   style="fill:#ebf3f7;fill-opacity:1;fill-rule:nonzero;stroke:none"
                   id="path348"
                   inkscape:connector-curvature="0" /></g></g></g></g><g
           id="g356"><g
             id="g358" /><g
             id="g370"><g
               clip-path="url(#clipPath362)"
               id="g368"><g
                 transform="translate(779.2256,240.7139)"
                 id="g366"><path
                   d="m 0,0 c 1.76,-21.188 -9.321,-43.732 -19.431,-53.889 -10.24,-10.287 -36.942,-20.67 -39.089,9.366 -0.577,8.085 1.039,16.269 3.574,23.19 5.724,15.632 14.668,26.72 24.364,34.447 4.667,3.719 10.302,6.289 15.464,6.449 4.433,0.139 9.098,-2.165 12.046,-7.774 C -1.321,8.456 -0.363,4.365 0,0"
                   style="fill:#ebf3f7;fill-opacity:1;fill-rule:nonzero;stroke:none"
                   id="path364"
                   inkscape:connector-curvature="0" /></g></g></g></g><g
           id="g372"><g
             id="g374" /><g
             id="g386"><g
               clip-path="url(#clipPath378)"
               id="g384"><g
                 transform="translate(45.8188,24.6836)"
                 id="g382"><path
                   d="m 0,0 c 1.76,-12.512 -9.32,-25.824 -19.43,-31.821 -10.24,-6.075 -36.943,-12.206 -39.089,5.53 -0.577,4.774 1.038,9.607 3.573,13.694 5.725,9.231 14.668,15.779 24.364,20.341 4.668,2.196 10.302,3.714 15.464,3.809 4.433,0.082 9.098,-1.279 12.046,-4.591 C -1.32,4.993 -0.362,2.578 0,0"
                   style="fill:#ebf3f7;fill-opacity:1;fill-rule:nonzero;stroke:none"
                   id="path380"
                   inkscape:connector-curvature="0" /></g></g></g></g></g></g><g
       id="g388"><g
         id="g390"><g
           id="g396"><g
             id="g398"><path
               d="M 430.985,323.675 C 424.648,323.559 417.73,321.696 411.999,319 v 0 c -11.903,-5.603 -22.884,-13.641 -29.912,-24.974 v 0 c -3.112,-5.017 -5.096,-10.95 -4.387,-16.812 v 0 c 2.635,-21.774 35.418,-14.248 47.99,-6.79 v 0 c 12.412,7.364 26.016,23.708 23.855,39.068 v 0 c -0.445,3.165 -1.621,6.13 -3.771,8.547 v 0 c -3.518,3.952 -9.027,5.64 -14.33,5.64 v 0 c -0.153,0 -0.306,-10e-4 -0.459,-0.004"
               style="fill:url(#linearGradient408);stroke:none"
               id="path410"
               inkscape:connector-curvature="0" /></g></g></g></g><g
       id="g412"><g
         id="g414"
         clip-path="url(#clipPath418)"><g
           id="g420"><g
             id="g422" /><g
             id="g434"><g
               clip-path="url(#clipPath426)"
               id="g432"
               style="opacity:0.5"><g
                 transform="translate(770.9736,70.2871)"
                 id="g430"><path
                   d="m 0,0 c 2.621,-18.633 -13.88,-38.459 -28.937,-47.392 -15.25,-9.046 -55.017,-18.176 -58.213,8.237 -0.861,7.11 1.546,14.308 5.321,20.394 8.525,13.747 21.845,23.498 36.285,30.294 6.951,3.271 15.343,5.53 23.03,5.672 6.602,0.121 13.549,-1.904 17.939,-6.838 C -1.967,7.437 -0.54,3.84 0,0"
                   style="fill:#d6e0e6;fill-opacity:1;fill-rule:nonzero;stroke:none"
                   id="path428"
                   inkscape:connector-curvature="0" /></g></g></g></g></g></g><g
       id="g436"><g
         id="g438"><g
           id="g444"><g
             id="g446"><path
               d="M 729.474,124.922 C 711.746,116.579 695.395,104.607 684.927,87.73 v 0 c -4.635,-7.472 -7.589,-16.308 -6.532,-25.038 v 0 C 682.318,30.263 731.14,41.474 749.863,52.58 v 0 c 0.045,0.027 0.092,0.054 0.137,0.081 v 0 78.548 c -7.102,-1.078 -14.286,-3.35 -20.526,-6.287"
               style="fill:url(#linearGradient456);stroke:none"
               id="path458"
               inkscape:connector-curvature="0" /></g></g></g></g><g
       id="g460"><g
         id="g462"><g
           id="g468"><g
             id="g470"><path
               d="m 120.798,500 c 5.52,-15.344 18.246,-30.242 29.743,-38.107 v 0 c 23.84,-16.307 55.632,-20.05 82.356,-8.833 v 0 c 22.785,9.562 42.713,20.783 62.336,35.977 v 0 c 4.648,3.598 9.525,7.217 14.382,10.963 v 0 z"
               style="fill:url(#linearGradient478);stroke:none"
               id="path480"
               inkscape:connector-curvature="0" /></g></g></g></g><g
       id="g482"><g
         id="g484"
         clip-path="url(#clipPath488)"><g
           id="g490"><g
             id="g492" /><g
             id="g504"><g
               clip-path="url(#clipPath496)"
               id="g502"><g
                 transform="translate(309.8916,496.7603)"
                 id="g500"><path
                   d="m 0,0 c 2.999,-21.322 -15.884,-44.009 -33.112,-54.229 -17.451,-10.353 -62.956,-20.801 -66.614,9.424 -0.984,8.137 1.769,16.373 6.088,23.337 9.757,15.73 24.998,26.889 41.522,34.665 7.954,3.743 17.555,6.328 26.352,6.49 7.555,0.139 15.505,-2.179 20.529,-7.824 C -2.251,8.509 -0.618,4.393 0,0"
                   style="fill:#d6e0e6;fill-opacity:1;fill-rule:nonzero;stroke:none"
                   id="path498"
                   inkscape:connector-curvature="0" /></g></g></g></g></g></g><g
       id="g506"><g
         id="g508"><g
           id="g514"><g
             id="g516"><path
               d="m 223.873,500 c -3.889,-4.07 -7.394,-8.518 -10.408,-13.378 v 0 c -4.595,-7.408 -7.522,-16.169 -6.476,-24.822 v 0 c 3.89,-32.149 52.291,-21.036 70.852,-10.024 v 0 c 15.79,9.367 32.887,28.579 35.273,48.224 v 0 z"
               style="fill:url(#linearGradient526);stroke:none"
               id="path528"
               inkscape:connector-curvature="0" /></g></g></g></g><g
       id="g530"><g
         id="g532"
         clip-path="url(#clipPath536)"><g
           id="g538"><g
             id="g540" /><g
             id="g552"><g
               clip-path="url(#clipPath544)"
               id="g550"><g
                 transform="translate(381.8398,156.085)"
                 id="g548"><path
                   d="m 0,0 c -0.266,-6.987 -7.154,-14.25 -15.37,-16.291 -8.215,-2.041 -14.651,2.316 -14.385,9.727 0.267,7.411 7.137,14.771 15.354,16.389 C -6.186,11.443 0.266,6.987 0,0"
                   style="fill:#ebf3f7;fill-opacity:1;fill-rule:nonzero;stroke:none"
                   id="path546"
                   inkscape:connector-curvature="0" /></g></g></g></g><g
           id="g554"><g
             id="g556" /><g
             id="g568"><g
               clip-path="url(#clipPath560)"
               id="g566"><g
                 transform="translate(758.124,401.8477)"
                 id="g564"><path
                   d="m 0,0 c -0.266,-6.987 -7.154,-14.25 -15.37,-16.291 -8.216,-2.041 -14.651,2.315 -14.385,9.727 0.267,7.41 7.137,14.771 15.353,16.389 C -6.187,11.443 0.266,6.987 0,0"
                   style="fill:#ebf3f7;fill-opacity:1;fill-rule:nonzero;stroke:none"
                   id="path562"
                   inkscape:connector-curvature="0" /></g></g></g></g><g
           id="g570"><g
             id="g572" /><g
             id="g584"><g
               clip-path="url(#clipPath576)"
               id="g582"><g
                 transform="translate(192.9414,411.9839)"
                 id="g580"><path
                   d="m 0,0 c -0.266,-6.988 -7.154,-14.25 -15.37,-16.291 -8.216,-2.041 -14.651,2.315 -14.385,9.727 0.267,7.41 7.137,14.771 15.353,16.389 C -6.187,11.443 0.266,6.987 0,0"
                   style="fill:#ebf3f7;fill-opacity:1;fill-rule:nonzero;stroke:none"
                   id="path578"
                   inkscape:connector-curvature="0" /></g></g></g></g><g
           id="g586"><g
             id="g588" /><g
             id="g600"><g
               clip-path="url(#clipPath592)"
               id="g598"><g
                 transform="translate(437.9727,122.2432)"
                 id="g596"><path
                   d="m 0,0 c -0.146,-3.858 -3.951,-7.869 -8.488,-8.996 -4.536,-1.128 -8.091,1.278 -7.944,5.371 0.148,4.093 3.942,8.157 8.479,9.051 C -3.416,6.319 0.146,3.858 0,0"
                   style="fill:#ebf3f7;fill-opacity:1;fill-rule:nonzero;stroke:none"
                   id="path594"
                   inkscape:connector-curvature="0" /></g></g></g></g><g
           id="g602"><g
             id="g604" /><g
             id="g616"><g
               clip-path="url(#clipPath608)"
               id="g614"><g
                 transform="translate(44.2095,489.7544)"
                 id="g612"><path
                   d="m 0,0 c -0.542,-14.274 -14.615,-29.11 -31.398,-33.28 -16.784,-4.169 -29.931,4.731 -29.386,19.87 0.544,15.139 14.579,30.176 31.363,33.481 C -12.637,23.376 0.543,14.274 0,0"
                   style="fill:#ebf3f7;fill-opacity:1;fill-rule:nonzero;stroke:none"
                   id="path610"
                   inkscape:connector-curvature="0" /></g></g></g></g></g></g><g
       id="g618"><g
         id="g620"><g
           id="g626"><g
             id="g628"><path
               d="m 367.508,192.887 c -9.415,-1.855 -17.287,-10.289 -17.593,-18.78 v 0 c -0.306,-8.493 7.069,-13.485 16.483,-11.146 v 0 c 9.414,2.338 17.308,10.66 17.613,18.667 v 0 c 0.262,6.896 -5.185,11.64 -12.716,11.639 v 0 c -1.213,0 -2.481,-0.123 -3.787,-0.38"
               style="fill:url(#linearGradient636);stroke:none"
               id="path638"
               inkscape:connector-curvature="0" /></g></g></g></g></g></svg>